<svg version="1.1" id="Layer_1" xmlns="http://www.w3.org/2000/svg" xmlns:xlink="http://www.w3.org/1999/xlink" x="0px" y="0px"
	 width="100%" viewBox="0 0 1080 1080" enable-background="new 0 0 1080 1080" xml:space="preserve">
<path fill="#000000" opacity="1.000000" stroke="none" 
	d="
M496.000000,1081.000000 
	C330.685699,1081.000000 165.871368,1081.000000 1.028531,1081.000000 
	C1.028531,721.060547 1.028531,361.121124 1.028531,1.090844 
	C360.897888,1.090844 720.795776,1.090844 1080.846924,1.090844 
	C1080.846924,360.999939 1080.846924,720.999939 1080.846924,1081.000000 
	C886.120667,1081.000000 691.310364,1081.000000 496.000000,1081.000000 
M485.967133,638.781311 
	C487.123138,641.697937 489.310944,642.264587 492.303711,642.240723 
	C509.799103,642.101135 527.296204,642.172241 544.792725,642.172241 
	C548.916870,642.172241 553.040955,642.172241 557.311401,642.172241 
	C557.311401,540.643005 557.311401,439.587128 557.311401,338.515625 
	C534.120178,338.515625 511.235321,338.515625 487.939331,338.515625 
	C487.939331,401.395721 487.939331,463.920380 487.939331,527.704285 
	C486.392609,525.288635 485.535736,523.950378 484.678802,522.612122 
	C446.217041,462.547119 407.726929,402.500214 369.372498,342.366760 
	C367.334290,339.171173 365.260498,338.018158 361.474670,338.059784 
	C341.980896,338.274200 322.483521,338.159210 302.987396,338.159210 
	C301.216614,338.159210 299.445831,338.159180 297.578186,338.159180 
	C297.578186,439.807953 297.578186,540.854614 297.578186,641.948975 
	C320.672485,641.948975 343.450134,641.948975 366.885986,641.948975 
	C366.885986,579.294128 366.885986,516.859131 366.885986,453.063263 
	C406.988342,515.598694 446.277679,576.866272 485.967133,638.781311 
M748.209839,475.295990 
	C744.767090,472.414978 741.510071,469.269989 737.851501,466.695709 
	C714.018188,449.926086 687.258545,445.971771 658.927673,448.816162 
	C615.595276,453.166687 570.700806,493.712433 569.603271,545.475220 
	C568.526794,596.246338 606.854675,635.185852 648.422363,644.910461 
	C664.858948,648.755737 681.490234,648.424683 698.079407,645.952271 
	C726.655396,641.693359 750.404053,629.122498 767.324951,605.072998 
	C768.792725,602.986877 770.066833,600.764465 771.520569,598.463440 
	C756.404907,590.904602 741.860596,583.628174 727.310486,576.363464 
	C726.433533,575.925476 725.510925,575.579041 723.749146,574.818604 
	C722.901428,575.937805 721.977783,577.346741 720.869568,578.591187 
	C708.323181,592.679810 692.229980,597.576416 674.017273,595.689026 
	C653.999390,593.614563 636.307434,580.360474 637.959290,556.836853 
	C683.469116,556.836853 729.019897,556.836853 774.906982,556.836853 
	C775.603882,526.360046 771.085266,498.210236 748.209839,475.295990 
M798.130310,575.395203 
	C799.065430,583.650208 799.272949,592.068115 801.076782,600.128662 
	C805.829773,621.367798 816.853271,637.841980 838.859924,644.352661 
	C860.286255,650.691772 881.350037,648.250671 901.819153,640.041504 
	C910.773987,636.450134 910.661987,636.119568 907.865906,627.073914 
	C903.425415,612.708008 898.957581,598.350525 894.382874,583.607788 
	C892.645569,584.538513 891.371887,585.258911 890.065918,585.914734 
	C875.380798,593.290100 865.465088,587.987671 864.084534,571.680664 
	C863.425537,563.897339 863.478516,556.044006 863.430054,548.220947 
	C863.337463,533.272278 863.403198,518.322632 863.403198,502.881592 
	C876.848206,502.881592 889.922180,502.881592 902.893127,502.881592 
	C902.893127,486.122131 902.893127,469.858582 902.893127,453.008850 
	C889.627014,453.008850 876.591675,453.008850 863.216797,453.008850 
	C863.216797,429.323120 863.216797,406.224976 863.216797,383.060242 
	C841.428711,383.060242 820.002136,383.060242 798.060364,383.060242 
	C798.060364,406.495483 798.060364,429.707458 798.060364,453.304565 
	C788.798645,453.304565 780.047729,453.304565 771.290100,453.304565 
	C771.290100,470.080353 771.290100,486.460419 771.290100,503.186462 
	C780.367554,503.186462 789.127930,503.186462 798.127563,503.186462 
	C798.127563,527.163696 798.127563,550.791931 798.130310,575.395203 
M179.707413,632.192322 
	C193.862747,614.970764 191.502869,588.818970 175.634323,574.539673 
	C158.160614,558.815979 129.452728,560.127258 114.045097,579.496094 
	C101.574715,595.172424 100.551277,622.826904 121.857323,639.401855 
	C137.377808,651.476013 164.605179,651.027405 179.707413,632.192322 
z"/>
<path fill="#FDFDFD" opacity="1.000000" stroke="none" 
	d="
M485.767059,638.457581 
	C446.277679,576.866272 406.988342,515.598694 366.885986,453.063263 
	C366.885986,516.859131 366.885986,579.294128 366.885986,641.948975 
	C343.450134,641.948975 320.672485,641.948975 297.578186,641.948975 
	C297.578186,540.854614 297.578186,439.807953 297.578186,338.159180 
	C299.445831,338.159180 301.216614,338.159210 302.987396,338.159210 
	C322.483521,338.159210 341.980896,338.274200 361.474670,338.059784 
	C365.260498,338.018158 367.334290,339.171173 369.372498,342.366760 
	C407.726929,402.500214 446.217041,462.547119 484.678802,522.612122 
	C485.535736,523.950378 486.392609,525.288635 487.939331,527.704285 
	C487.939331,463.920380 487.939331,401.395721 487.939331,338.515625 
	C511.235321,338.515625 534.120178,338.515625 557.311401,338.515625 
	C557.311401,439.587128 557.311401,540.643005 557.311401,642.172241 
	C553.040955,642.172241 548.916870,642.172241 544.792725,642.172241 
	C527.296204,642.172241 509.799103,642.101135 492.303711,642.240723 
	C489.310944,642.264587 487.123138,641.697937 485.767059,638.457581 
z"/>
<path fill="#FEFEFE" opacity="1.000000" stroke="none" 
	d="
M748.454834,475.548798 
	C771.085266,498.210236 775.603882,526.360046 774.906982,556.836853 
	C729.019897,556.836853 683.469116,556.836853 637.959290,556.836853 
	C636.307434,580.360474 653.999390,593.614563 674.017273,595.689026 
	C692.229980,597.576416 708.323181,592.679810 720.869568,578.591187 
	C721.977783,577.346741 722.901428,575.937805 723.749146,574.818604 
	C725.510925,575.579041 726.433533,575.925476 727.310486,576.363464 
	C741.860596,583.628174 756.404907,590.904602 771.520569,598.463440 
	C770.066833,600.764465 768.792725,602.986877 767.324951,605.072998 
	C750.404053,629.122498 726.655396,641.693359 698.079407,645.952271 
	C681.490234,648.424683 664.858948,648.755737 648.422363,644.910461 
	C606.854675,635.185852 568.526794,596.246338 569.603271,545.475220 
	C570.700806,493.712433 615.595276,453.166687 658.927673,448.816162 
	C687.258545,445.971771 714.018188,449.926086 737.851501,466.695709 
	C741.510071,469.269989 744.767090,472.414978 748.454834,475.548798 
M648.983582,499.461578 
	C643.140991,505.274078 639.797791,512.152893 639.658447,520.841370 
	C662.249084,520.841370 684.508545,520.841370 706.768005,520.841370 
	C708.081848,520.841370 709.395630,520.841370 711.141296,520.841370 
	C708.974854,508.346680 703.902588,498.296753 691.814392,493.609528 
	C676.877808,487.817871 662.565613,489.006104 648.983582,499.461578 
z"/>
<path fill="#FEFEFE" opacity="1.000000" stroke="none" 
	d="
M798.128906,574.907715 
	C798.127563,550.791931 798.127563,527.163696 798.127563,503.186462 
	C789.127930,503.186462 780.367554,503.186462 771.290100,503.186462 
	C771.290100,486.460419 771.290100,470.080353 771.290100,453.304565 
	C780.047729,453.304565 788.798645,453.304565 798.060364,453.304565 
	C798.060364,429.707458 798.060364,406.495483 798.060364,383.060242 
	C820.002136,383.060242 841.428711,383.060242 863.216797,383.060242 
	C863.216797,406.224976 863.216797,429.323120 863.216797,453.008850 
	C876.591675,453.008850 889.627014,453.008850 902.893127,453.008850 
	C902.893127,469.858582 902.893127,486.122131 902.893127,502.881592 
	C889.922180,502.881592 876.848206,502.881592 863.403198,502.881592 
	C863.403198,518.322632 863.337463,533.272278 863.430054,548.220947 
	C863.478516,556.044006 863.425537,563.897339 864.084534,571.680664 
	C865.465088,587.987671 875.380798,593.290100 890.065918,585.914734 
	C891.371887,585.258911 892.645569,584.538513 894.382874,583.607788 
	C898.957581,598.350525 903.425415,612.708008 907.865906,627.073914 
	C910.661987,636.119568 910.773987,636.450134 901.819153,640.041504 
	C881.350037,648.250671 860.286255,650.691772 838.859924,644.352661 
	C816.853271,637.841980 805.829773,621.367798 801.076782,600.128662 
	C799.272949,592.068115 799.065430,583.650208 798.128906,574.907715 
z"/>
<path fill="#FEFEFE" opacity="1.000000" stroke="none" 
	d="
M179.472809,632.460693 
	C164.605179,651.027405 137.377808,651.476013 121.857323,639.401855 
	C100.551277,622.826904 101.574715,595.172424 114.045097,579.496094 
	C129.452728,560.127258 158.160614,558.815979 175.634323,574.539673 
	C191.502869,588.818970 193.862747,614.970764 179.472809,632.460693 
z"/>
<path fill="#040404" opacity="1.000000" stroke="none" 
	d="
M649.237915,499.211212 
	C662.565613,489.006104 676.877808,487.817871 691.814392,493.609528 
	C703.902588,498.296753 708.974854,508.346680 711.141296,520.841370 
	C709.395630,520.841370 708.081848,520.841370 706.768005,520.841370 
	C684.508545,520.841370 662.249084,520.841370 639.658447,520.841370 
	C639.797791,512.152893 643.140991,505.274078 649.237915,499.211212 
z"/>
</svg>